# xmcd
#
# Track frame offsets:
#	150
#	13005
#	30046
#	47652
#	62076
#	79549
#	96984
#	114544
#	128921
#	143326
#	162076
#	174191
#	192441
#	206418
#	218609
#	228298
#	242469
#	256201
#	270731
#	288998
#	304784
#
# Disc length: 4289 seconds
#
# Revision: 0
# Processed by: cddbd v1.5.2PL0 Copyright (c) Steve Scherf et al.
# Submitted via: dBpowerAMP V4.0
#
DISCID=0c10bf15
DTITLE=Kemal Monteno - Moje najlepse pesme
DYEAR=1900
DGENRE=Easy Listening
TTITLE0=Jedne Noci u decembru
TTITLE1=Pahuljice moja
TTITLE2=Vino i gitare
TTITLE3=Ta me casa nece mimoici
TTITLE4=Tajna zena
TTITLE5=Za svoju dusu
TTITLE6=Pesma zaljubljenika
TTITLE7=Duso moja
TTITLE8=Na kraju grada
TTITLE9=Nije htjela
TTITLE10=Sto sam ti skrivio zivote moj
TTITLE11=Ljubavna bol
TTITLE12=Olivija
TTITLE13=Sinoc pod prozorom njenim
TTITLE14=Laz
TTITLE15=Sarajevo, ljubavi moja
TTITLE16=Ne budi me nocas
TTITLE17=Sviraj mi o njoj
TTITLE18=Jedne noci jedne zime
TTITLE19=Sviraj gitaro moja
TTITLE20=Napisi jednu ljubavnu
EXTD=
EXTT0=
EXTT1=
EXTT2=
EXTT3=
EXTT4=
EXTT5=
EXTT6=
EXTT7=
EXTT8=
EXTT9=
EXTT10=
EXTT11=
EXTT12=
EXTT13=
EXTT14=
EXTT15=
EXTT16=
EXTT17=
EXTT18=
EXTT19=
EXTT20=
PLAYORDER=
